<svg xmlns="http://www.w3.org/2000/svg" height="511pt" version="1.1" viewBox="0 1 511 511.99998" width="511pt">
<g id="surface1">
<path d="M 463.703125 48.792969 C 432.238281 17.328125 390.347656 0 345.746094 0 C 301.160156 0 259.273438 17.332031 227.800781 48.804688 C 196.332031 80.273438 179 122.160156 179 166.75 C 179 181.867188 181.324219 198.007812 186.089844 215.910156 L 5.828125 396.171875 C 2.394531 399.605469 0.5 404.171875 0.5 409.03125 L 0.5 493.820312 C 0.5 503.84375 8.65625 512 18.679688 512 L 101.621094 512 C 111.644531 512 119.800781 503.84375 119.800781 493.820312 L 119.800781 458.449219 L 155.171875 458.449219 C 165.195312 458.449219 173.347656 450.292969 173.347656 440.269531 L 173.347656 404.898438 L 210.566406 404.898438 C 215.421875 404.898438 219.984375 403.011719 223.421875 399.574219 L 296.433594 326.566406 C 312.804688 331.167969 329.363281 333.5 345.746094 333.5 C 390.335938 333.5 432.226562 316.167969 463.695312 284.699219 C 495.167969 253.226562 512.496094 211.339844 512.496094 166.75 C 512.5 122.152344 495.171875 80.257812 463.703125 48.792969 Z M 442.449219 263.449219 C 416.652344 289.246094 382.3125 303.449219 345.75 303.449219 C 329.929688 303.449219 314.519531 300.964844 298.640625 295.847656 C 292.113281 293.746094 285.054688 295.449219 280.210938 300.292969 L 205.652344 374.851562 L 161.476562 374.851562 C 151.453125 374.851562 143.300781 383.003906 143.300781 393.027344 L 143.300781 428.402344 L 107.929688 428.402344 C 97.90625 428.402344 89.75 436.554688 89.75 446.578125 L 89.75 481.949219 L 30.550781 481.949219 L 30.550781 413.949219 L 212.257812 232.242188 C 216.953125 227.539062 218.707031 220.65625 216.835938 214.277344 C 211.597656 196.40625 209.050781 180.859375 209.050781 166.75 C 209.050781 130.1875 223.253906 95.847656 249.050781 70.050781 C 274.84375 44.257812 309.1875 30.050781 345.746094 30.050781 C 382.320312 30.050781 416.667969 44.253906 442.457031 70.042969 C 468.246094 95.832031 482.449219 130.175781 482.449219 166.75 C 482.449219 203.3125 468.242188 237.65625 442.449219 263.449219 Z M 442.449219 263.449219 " style=" stroke:none;fill-rule:nonzero;fill:rgb(0%,0%,0%);fill-opacity:1;" />
<path d="M 345.84375 74.363281 C 295.886719 74.363281 255.246094 115.003906 255.246094 164.957031 C 255.246094 214.910156 295.886719 255.550781 345.84375 255.550781 C 395.796875 255.550781 436.433594 214.910156 436.433594 164.957031 C 436.433594 115.003906 395.796875 74.363281 345.84375 74.363281 Z M 345.84375 225.5 C 312.457031 225.5 285.296875 198.339844 285.296875 164.957031 C 285.296875 131.574219 312.457031 104.414062 345.84375 104.414062 C 379.226562 104.414062 406.386719 131.574219 406.386719 164.957031 C 406.386719 198.339844 379.226562 225.5 345.84375 225.5 Z M 345.84375 225.5 " style=" stroke:none;fill-rule:nonzero;fill:rgb(0%,0%,0%);fill-opacity:1;" />
</g>
</svg>